<svg xmlns="http://www.w3.org/2000/svg" viewBox="0 0 641.29 481.23"><defs><linearGradient id="a" x1="40.26" y1="-39.74" x2="599.74" y2="519.74" gradientUnits="userSpaceOnUse"><stop offset="0" stop-color="#5a9edb"/><stop offset="0.2" stop-color="#5b90bf"/><stop offset="0.75" stop-color="#5f6e7b"/><stop offset="1" stop-color="#606060"/></linearGradient></defs><path d="M639 470v-84a5 5 0 0 1 0-1v-34a5 5 0 0 1 0-1v-25a4 4 0 0 1 0-1V0H1v480h638v-10Z" fill="url(#a)"/><path d="M1 400c209-27 255-46 254-58 0-18-106-33-145-37a708 708 0 0 0-109-2" fill="#5f90b2" data-name="bg grass"/><path d="m641 480-1-14v-14a5 5 0 0 1 1-3 5 5 0 0 1-1-2 52 52 0 0 0 1-10 5 5 0 0 1-1-2l1-4a6 6 0 0 1-1-1 15 15 0 0 1 0-3 5 5 0 0 1 0-1 7 7 0 0 1 0-2 5 5 0 0 1 0-1v-1a5 5 0 0 1 1-1v-1l-1-1a5 5 0 0 1 0-1v-14a5 5 0 0 1 0-1v-10a6 6 0 0 1 0-2 6 6 0 0 1 0-3 6 6 0 0 1 0-1 6 6 0 0 1 0-3 4 4 0 0 1 0-1l1-17-1-8a13 13 0 0 1 0-3 4 4 0 0 1 1-2h-1a5 5 0 0 1 0-5 6 6 0 0 1 1-5 5 5 0 0 1 0-2l-1-9a5 5 0 0 1 0-3v-3a4 4 0 0 1 0-2 44 44 0 0 0 0-7v-7a4 4 0 0 1 0-1c-16-6-100-42-199-40a400 400 0 0 0-49 4c-99 14-147 52-223 81-37 14-93 30-169 35v91h630c4 1 8 2 11 1a5 5 0 0 1 0-1Z" fill="#4ca4e0" data-name="main grass"/><path fill="#2588cc" d="M450 252h3v75h-3z"/><path fill="#2588cc" d="m452 281-2-2 10-10 2 2-10 10z"/><path data-name="branch" fill="#2588cc" d="m440 277 2-2 10 10-2 2-10-10z"/><ellipse cx="434.53" cy="272.22" rx="13.63" ry="13.82" fill="#27628f"/><ellipse data-name="big bush" cx="449.67" cy="230.84" rx="40.82" ry="41.39" fill="#378ccf"/><ellipse data-name="bush" cx="468.36" cy="266.53" rx="13.63" ry="13.82" fill="#3585c2"/><ellipse cx="451.01" cy="330.22" rx="32" ry="3.29" opacity=".4"/><g data-name="bg tree"><path fill="#338acb" d="M156 299h1v19h-1z"/><ellipse cx="156.61" cy="291.59" rx="10.37" ry="12" fill="#4396d8"/><ellipse cx="156.69" cy="318.14" rx="5.67" ry="0.62" opacity=".4"/><path fill="#238acd" d="M33 285h1v30h-1z"/><ellipse cx="33.6" cy="270.92" rx="17.07" ry="21.57" fill="#4396d8"/><ellipse cx="33.73" cy="315.43" rx="9.34" ry="0.98" opacity=".4"/></g></svg>