<svg xmlns="http://www.w3.org/2000/svg" viewBox="0 0 642.59 481.23"><defs><linearGradient id="a" x1="40.79" y1="-39.74" x2="600.26" y2="519.74" gradientUnits="userSpaceOnUse"><stop offset="0" stop-color="#3ddeed"/><stop offset="0.12" stop-color="#3ddeed" stop-opacity="0.87"/><stop offset="0.56" stop-color="#3ddeed" stop-opacity="0.41"/><stop offset="0.86" stop-color="#3ddeed" stop-opacity="0.11"/><stop offset="1" stop-color="#3ddeed" stop-opacity="0"/></linearGradient><linearGradient id="b" x1="1.06" y1="292.29" x2="1.06" y2="292.29" gradientUnits="userSpaceOnUse"><stop offset="0" stop-color="#3ddeed"/><stop offset="1" stop-color="#3ddeed" stop-opacity="0"/></linearGradient></defs><path d="M640 470v-84a5 5 0 0 1 0-1v-34a5 5 0 0 1 0-1v-25a4 4 0 0 1 0-1V0H1v480h639v-10Z" transform="translate(1)" fill="url(#a)"/><path d="M1 400c210-27 256-46 256-58-1-18-107-33-146-37a711 711 0 0 0-110-2" fill="#72a926" data-name="bg grass"/><path d="M642 480v-28a5 5 0 0 1 0-3 5 5 0 0 1 0-2 51 51 0 0 0 0-10 5 5 0 0 1 0-2v-4a6 6 0 0 1 0-1 15 15 0 0 1 0-3 5 5 0 0 1 0-1 7 7 0 0 1 0-2 5 5 0 0 1 0-1v-1a5 5 0 0 1 0-1v-2a4 4 0 0 1 0-1v-14a5 5 0 0 1 0-1v-10a6 6 0 0 1 0-2 6 6 0 0 1-1-3 6 6 0 0 1 0-1 6 6 0 0 1 0-3 5 5 0 0 1 0-1l1-17-1-8a13 13 0 0 1 1-3 4 4 0 0 1 0-2c1-1 0-1 0 0a5 5 0 0 1 0-5 6 6 0 0 1 0-5 5 5 0 0 1 0-2l-1-9a5 5 0 0 1 1-3l-1-3a4 4 0 0 1 0-2 44 44 0 0 0 0-7v-7a4 4 0 0 1 0-1c-16-6-100-42-199-40a402 402 0 0 0-49 4c-99 14-148 52-224 81-37 14-93 30-169 35v91h632c3 1 7 2 10 1a5 5 0 0 1 0-1Z" fill="#357c0a" data-name="main grass"/><path fill="#79522c" d="M451 252h3v75h-3z"/><path fill="#79522c" d="m454 281-3-2 10-10 3 2-10 10z"/><path data-name="branch" fill="#79522c" d="m442 277 2-2 9 10-2 2-9-10z"/><ellipse cx="435.82" cy="272.22" rx="13.63" ry="13.82" fill="#57aa28"/><ellipse data-name="big bush" cx="450.97" cy="230.84" rx="40.82" ry="41.39" fill="#117335"/><ellipse data-name="bush" cx="469.65" cy="266.53" rx="13.63" ry="13.82" fill="#7cb51c"/><ellipse cx="452.3" cy="330.22" rx="32" ry="3.29" opacity=".4"/><g data-name="bg tree"><path fill="#77522e" d="M158 299v19z"/><ellipse cx="157.91" cy="291.59" rx="10.37" ry="12" fill="#1b7337"/><ellipse cx="157.98" cy="318.14" rx="5.67" ry="0.62" opacity=".4"/><path fill="#77522e" d="M34 285h2v30h-2z"/><ellipse cx="34.9" cy="270.92" rx="17.07" ry="21.57" fill="#1b7337"/><ellipse cx="35.02" cy="315.43" rx="9.34" ry="0.98" opacity=".4"/></g></svg>